<svg xmlns="http://www.w3.org/2000/svg" width="18.87" height="15.803" viewBox="0 0 18.87 15.803"><defs><style>.a{fill:none;stroke:#3e6562;stroke-linecap:round;stroke-linejoin:round;stroke-width:2px;}</style></defs><g transform="translate(1 1)"><path class="a" d="M18.37,16.769A1.534,1.534,0,0,1,16.837,18.3H3.034A1.534,1.534,0,0,1,1.5,16.769V8.334A1.534,1.534,0,0,1,3.034,6.8H6.1L7.635,4.5h4.6l1.534,2.3h3.067A1.534,1.534,0,0,1,18.37,8.334Z" transform="translate(-1.5 -4.5)"/><path class="a" d="M18.135,16.567A3.067,3.067,0,1,1,15.067,13.5a3.067,3.067,0,0,1,3.067,3.067Z" transform="translate(-6.632 -8.899)"/></g></svg>