<svg xmlns="http://www.w3.org/2000/svg" width="30" height="30" viewBox="0 0 30 30"><defs><style>.a{fill:#fadcdd;}.b{fill:#ff4848;}</style></defs><rect class="a" width="30" height="30" rx="6"/><g transform="translate(8 8)"><g transform="translate(0 0)"><path class="b" d="M-570.431-38.527a6.9,6.9,0,0,1-6.875-6.832,6.884,6.884,0,0,1,6.7-6.972,6.9,6.9,0,0,1,7.124,6.846A6.906,6.906,0,0,1-570.431-38.527Zm-.06-.767c.305-.024.612-.035.915-.074a5.824,5.824,0,0,0,1.682-.49,6.011,6.011,0,0,0,2.034-1.516,6.026,6.026,0,0,0,.982-1.529,6.233,6.233,0,0,0,.434-1.381,6.113,6.113,0,0,0,0-2.308A6.131,6.131,0,0,0-565.4-48.9a5.968,5.968,0,0,0-1.322-1.4,6,6,0,0,0-1.987-1.009,5.976,5.976,0,0,0-2.688-.158,5.932,5.932,0,0,0-2.1.776,6.009,6.009,0,0,0-1.659,1.472,6.115,6.115,0,0,0-.923,1.66,6.166,6.166,0,0,0-.366,1.75,6.139,6.139,0,0,0,.251,2.16,6.186,6.186,0,0,0,.832,1.727,5.956,5.956,0,0,0,1.6,1.583,5.957,5.957,0,0,0,1.733.8A7.143,7.143,0,0,0-570.491-39.295Z" transform="translate(577.307 52.334)"/></g><path class="b" d="M-441.9,85.078l-.592-.592-1.954,1.954-1.954-1.954-.592.592,1.954,1.954-1.954,1.954.592.592,1.954-1.954,1.954,1.954.592-.592-1.954-1.954Z" transform="translate(451.357 -79.904)"/></g></svg>