<svg xmlns="http://www.w3.org/2000/svg" width="26" height="26" viewBox="0 0 26 26"><defs><style>.a{fill:#fff8da;}.b{fill:#f5ca2e;}</style></defs><rect class="a" width="26" height="26" rx="13"/><g transform="translate(5.15 2.25)"><path class="b" d="M13.75,7.514a.8.8,0,0,0-.821-.764H3.071a.8.8,0,0,0-.821.764V8.66h11.5Z" transform="translate(0 0)"/><path class="b" d="M2.25,19.57a.8.8,0,0,0,.821.764h9.857a.8.8,0,0,0,.821-.764V15.75H2.25ZM5.9,18.424H10.1a.349.349,0,0,1,.359.334h0a.349.349,0,0,1-.359.334H5.9a.349.349,0,0,1-.359-.334h0A.349.349,0,0,1,5.9,18.424Zm-1.848,0h.308a.349.349,0,0,1,.359.334h0a.349.349,0,0,1-.359.334H4.047a.349.349,0,0,1-.359-.334h0A.349.349,0,0,1,4.047,18.424Z" transform="translate(0 -5.37)"/></g></svg>