<svg xmlns="http://www.w3.org/2000/svg" width="13.094" height="9.821" viewBox="0 0 13.094 9.821"><defs><style>.a{fill:#fff;}</style></defs><path class="a" d="M12.787,7.364H11.256L10.83,6.3A2.85,2.85,0,0,0,8.171,4.5H4.923A2.851,2.851,0,0,0,2.264,6.3L1.838,7.364H.307a.307.307,0,0,0-.3.381l.153.614a.307.307,0,0,0,.3.232H.974A1.625,1.625,0,0,0,.409,9.82v1.228a1.623,1.623,0,0,0,.409,1.072V13.5a.818.818,0,0,0,.818.818h.818a.818.818,0,0,0,.818-.818v-.818H9.821V13.5a.818.818,0,0,0,.818.818h.818a.818.818,0,0,0,.818-.818V12.119a1.622,1.622,0,0,0,.409-1.072V9.82a1.626,1.626,0,0,0-.564-1.228h.513a.307.307,0,0,0,.3-.232l.153-.614a.307.307,0,0,0-.3-.381Zm-9-.456a1.228,1.228,0,0,1,1.14-.772H8.171a1.228,1.228,0,0,1,1.14.772l.51,1.274H3.274l.51-1.274ZM2.455,11.042a.816.816,0,1,1,0-1.632,1.574,1.574,0,0,1,1.228,1.224C3.683,11.124,2.946,11.042,2.455,11.042Zm8.184,0c-.491,0-1.228.082-1.228-.408A1.574,1.574,0,0,1,10.639,9.41a.816.816,0,1,1,0,1.632Z" transform="translate(0 -4.5)"/></svg>