<svg xmlns="http://www.w3.org/2000/svg" width="26" height="26" viewBox="0 0 26 26"><defs><style>.a{fill:#ffeeda;opacity:0.998;}.b{fill:#fca476;}</style></defs><rect class="a" width="26" height="26" rx="13"/><g transform="translate(-76.073 -104.777)"><path class="b" d="M82.073,117.677q0-1.99,0-3.98c0-.372.14-.49.5-.4a12.97,12.97,0,0,0,3.08.372,13.18,13.18,0,0,0,2.626-.324c.935-.185,1.872-.377,2.817-.5a11.462,11.462,0,0,1,2.745.029,7.025,7.025,0,0,1,1.656.374c.361.134.393.179.393.558v7.862c0,.049,0,.1,0,.147-.01.264-.168.378-.426.32-.574-.128-1.144-.288-1.725-.365a13.027,13.027,0,0,0-1.7-.078,17.986,17.986,0,0,0-3.942.58,11.582,11.582,0,0,1-3.219.278,12.857,12.857,0,0,1-2.517-.4c-.22-.058-.29-.157-.29-.409Q82.072,119.708,82.073,117.677Zm4.709-.01A2.2,2.2,0,1,0,89,115.478,2.188,2.188,0,0,0,86.781,117.667Zm6.857-.553c0-.24,0-.48,0-.72a.46.46,0,0,0-.446-.485.451.451,0,0,0-.454.461q-.012.744,0,1.489a.451.451,0,1,0,.9-.009C93.641,117.605,93.638,117.36,93.638,117.114Zm-9.314.9c0,.251,0,.5,0,.752a.45.45,0,1,0,.9.013c.009-.5.009-1,0-1.5a.45.45,0,1,0-.9.02C84.32,117.535,84.324,117.775,84.324,118.015Z" transform="translate(0)"/><path class="b" d="M169.118,167.871a1.29,1.29,0,1,1-1.313,1.267A1.291,1.291,0,0,1,169.118,167.871Z" transform="translate(-80.114 -51.483)"/></g></svg>