<svg xmlns="http://www.w3.org/2000/svg" width="10.526" height="10.526" viewBox="0 0 10.526 10.526"><defs><style>.a{fill:#00d880;}</style></defs><path class="a" d="M15.854,12.695l-.445-.458a.1.1,0,0,0-.071-.03h0a.092.092,0,0,0-.071.03l-3.087,3.11-1.123-1.123a.1.1,0,0,0-.142,0l-.45.45a.1.1,0,0,0,0,.144l1.417,1.417a.448.448,0,0,0,.3.144.47.47,0,0,0,.294-.139h0l3.383-3.4A.108.108,0,0,0,15.854,12.695Z" transform="translate(-7.894 -9.028)"/><path class="a" d="M8.638,4.083A4.553,4.553,0,1,1,5.417,5.417,4.524,4.524,0,0,1,8.638,4.083m0-.708A5.263,5.263,0,1,0,13.9,8.638,5.262,5.262,0,0,0,8.638,3.375Z" transform="translate(-3.375 -3.375)"/></svg>