<svg xmlns="http://www.w3.org/2000/svg" width="40.107" height="40.107" viewBox="0 0 40.107 40.107"><defs><style>.a{fill:#fff;}</style></defs><path class="a" d="M30.924,14.046,29.24,12.321a.363.363,0,0,0-.268-.114h0a.348.348,0,0,0-.268.114L17.035,24.033,12.788,19.8a.371.371,0,0,0-.536,0l-1.7,1.7a.379.379,0,0,0,0,.543l5.357,5.337a1.7,1.7,0,0,0,1.119.543,1.778,1.778,0,0,0,1.11-.524h.01L30.934,14.589A.406.406,0,0,0,30.924,14.046Z" transform="translate(-0.37 0.276)"/><path class="a" d="M23.428,6.074a17.347,17.347,0,1,1-12.273,5.081A17.239,17.239,0,0,1,23.428,6.074m0-2.7A20.053,20.053,0,1,0,43.482,23.428,20.05,20.05,0,0,0,23.428,3.375Z" transform="translate(-3.375 -3.375)"/></svg>