<svg xmlns="http://www.w3.org/2000/svg" width="30" height="30" viewBox="0 0 30 30"><defs><style>.a{fill:#defff3;}.b{fill:#00d880;}</style></defs><rect class="a" width="30" height="30" rx="6"/><g transform="translate(8 8)"><path class="b" d="M17.544,12.847l-.584-.6a.126.126,0,0,0-.093-.04h0a.121.121,0,0,0-.093.04l-4.049,4.079-1.474-1.474a.128.128,0,0,0-.186,0l-.591.591a.132.132,0,0,0,0,.189l1.859,1.859a.588.588,0,0,0,.388.189.616.616,0,0,0,.385-.183h0l4.437-4.461A.142.142,0,0,0,17.544,12.847Z" transform="translate(-7.102 -8.038)"/><path class="b" d="M10.278,4.3A5.972,5.972,0,1,1,6.053,6.053,5.935,5.935,0,0,1,10.278,4.3m0-.929a6.9,6.9,0,1,0,6.9,6.9,6.9,6.9,0,0,0-6.9-6.9Z" transform="translate(-3.375 -3.375)"/></g></svg>