<svg xmlns="http://www.w3.org/2000/svg" width="7" height="5.983" viewBox="0 0 7 5.983"><defs><style>.a{fill:none;stroke:#fca476;stroke-linecap:round;stroke-linejoin:round;}</style></defs><g transform="translate(0.5 0.574)"><path class="a" d="M5.718,24.082v-.527A1.055,1.055,0,0,0,4.664,22.5H2.555A1.055,1.055,0,0,0,1.5,23.555v.527" transform="translate(-1.5 -19.173)"/><path class="a" d="M9.609,5.555A1.055,1.055,0,1,1,8.555,4.5,1.055,1.055,0,0,1,9.609,5.555Z" transform="translate(-6.388 -4.5)"/><path class="a" d="M30.791,24.243v-.527A1.055,1.055,0,0,0,30,22.7" transform="translate(-24.791 -19.333)"/><path class="a" d="M24,4.695a1.055,1.055,0,0,1,0,2.043" transform="translate(-19.888 -4.661)"/></g></svg>