<svg xmlns="http://www.w3.org/2000/svg" width="12.999" height="12.998" viewBox="0 0 12.999 12.998"><defs><style>.a{fill:#fff;}</style></defs><path class="a" d="M-2446.555,1688.87a.706.706,0,0,0-.705.7.706.706,0,0,0,.705.7.705.705,0,0,0,.7-.7A.705.705,0,0,0-2446.555,1688.87Z" transform="translate(2454.983 -1683.076)"/><path class="a" d="M-2488.1,1620.91a.706.706,0,0,0,.7-.7.706.706,0,0,0-.7-.7.706.706,0,0,0-.705.7A.706.706,0,0,0-2488.1,1620.91Z" transform="translate(2494.604 -1616.926)"/><path class="a" d="M-2529.655,1688.87a.706.706,0,0,0-.705.7.706.706,0,0,0,.705.7.706.706,0,0,0,.7-.7A.706.706,0,0,0-2529.655,1688.87Z" transform="translate(2534.225 -1683.076)"/><path class="a" d="M-2607.125,1564.05a6.5,6.5,0,0,0-6.5,6.5,6.5,6.5,0,0,0,6.5,6.5,6.5,6.5,0,0,0,6.5-6.5A6.5,6.5,0,0,0-2607.125,1564.05Zm0,1.646a1.635,1.635,0,0,1,1.634,1.633,1.636,1.636,0,0,1-1.634,1.634,1.635,1.635,0,0,1-1.633-1.634A1.635,1.635,0,0,1-2607.125,1565.7Zm3.845,8.125a5.323,5.323,0,0,0-3.845-1.639,5.32,5.32,0,0,0-3.843,1.639,4.959,4.959,0,0,1-.542-.771,6.287,6.287,0,0,1,1.573-1.128,1.633,1.633,0,0,1-.75-1.373,1.636,1.636,0,0,1,1.634-1.633,1.635,1.635,0,0,1,1.633,1.633,1.624,1.624,0,0,1-.169.722c.153-.011.308-.017.464-.017s.311.006.465.017a1.617,1.617,0,0,1-.169-.722,1.635,1.635,0,0,1,1.633-1.633,1.635,1.635,0,0,1,1.633,1.633,1.633,1.633,0,0,1-.75,1.373,6.288,6.288,0,0,1,1.573,1.129A5.009,5.009,0,0,1-2603.28,1573.821Z" transform="translate(2613.624 -1564.05)"/></svg>