<svg xmlns="http://www.w3.org/2000/svg" width="13" height="13" viewBox="0 0 13 13"><defs><style>.a{fill:#fff;}</style></defs><path class="a" d="M-1709.617,1649.5a1.965,1.965,0,0,0-1.963,1.963,1.966,1.966,0,0,0,1.963,1.964,1.966,1.966,0,0,0,1.963-1.964A1.965,1.965,0,0,0-1709.617,1649.5Z" transform="translate(1716.117 -1644.963)"/><path class="a" d="M-1802.8,1551.78a6.5,6.5,0,0,0-6.5,6.5,6.5,6.5,0,0,0,6.5,6.5,6.5,6.5,0,0,0,6.5-6.5A6.5,6.5,0,0,0-1802.8,1551.78Zm3.517,10.624a5.977,5.977,0,0,0-3.517-1.139,5.977,5.977,0,0,0-3.516,1.139,5.371,5.371,0,0,1-.716-.74,7.02,7.02,0,0,1,2.268-1.141,2.977,2.977,0,0,1-1.019-2.243,2.988,2.988,0,0,1,2.984-2.984,2.988,2.988,0,0,1,2.985,2.984,2.977,2.977,0,0,1-1.019,2.243,7.018,7.018,0,0,1,2.268,1.141A5.391,5.391,0,0,1-1799.28,1562.4Z" transform="translate(1809.297 -1551.78)"/></svg>