<svg xmlns="http://www.w3.org/2000/svg" width="58" height="57" viewBox="0 0 58 57"><defs><style>.a{fill:#c6475b;}.b{fill:#fff;}</style></defs><rect class="a" width="58" height="57" rx="4"/><path class="b" d="M2,29a3,3,0,0,0,3,3H23a3,3,0,0,0,3-3V8H2ZM19,13a1,1,0,0,1,2,0V27a1,1,0,0,1-2,0Zm-6,0a1,1,0,0,1,2,0V27a1,1,0,0,1-2,0ZM7,13a1,1,0,0,1,2,0V27a1,1,0,0,1-2,0ZM27,2H19.5L18.913.831A1.5,1.5,0,0,0,17.569,0H10.425A1.483,1.483,0,0,0,9.088.831L8.5,2H1A1,1,0,0,0,0,3V5A1,1,0,0,0,1,6H27a1,1,0,0,0,1-1V3A1,1,0,0,0,27,2Z" transform="translate(14.759 12)"/></svg>