<svg xmlns="http://www.w3.org/2000/svg" width="40" height="40" viewBox="0 0 40 40"><defs><style>.a{fill:#fff9e3;}.b{fill:#fca476;}</style></defs><rect class="a" width="40" height="40" rx="20"/><path class="b" d="M14.705,12.033c-2.164-.563-2.861-1.144-2.861-2.05,0-1.039.963-1.764,2.575-1.764,1.7,0,2.327.81,2.384,2H18.91A3.8,3.8,0,0,0,15.85,6.588V4.5H12.989V6.56c-1.85.4-3.337,1.6-3.337,3.442,0,2.2,1.821,3.3,4.482,3.938,2.384.572,2.861,1.411,2.861,2.3,0,.658-.467,1.707-2.575,1.707-1.964,0-2.737-.877-2.841-2H9.48a4,4,0,0,0,3.509,3.652v2.069H15.85v-2.05c1.859-.353,3.337-1.43,3.337-3.385C19.187,13.52,16.87,12.6,14.705,12.033Z" transform="translate(5.549 6.5)"/></svg>