<svg xmlns="http://www.w3.org/2000/svg" width="9" height="11" viewBox="0 0 9 11"><defs><style>.a{fill:#fff;}</style></defs><g transform="translate(0.944)"><path class="a" d="M104.494,5.167l-.526-.578a.41.41,0,0,0-.563-.035L101.836,5.88V.385a.392.392,0,0,0-.4-.385h-.8a.392.392,0,0,0-.4.385v5.5L98.67,4.554a.41.41,0,0,0-.563.035l-.526.577a.376.376,0,0,0,.037.545l3.157,2.666a.411.411,0,0,0,.526,0l3.156-2.666A.375.375,0,0,0,104.494,5.167Z" transform="translate(-97.482 0)"/></g><g transform="translate(0 9.54)"><path class="a" d="M56.625,416h-8.25a.37.37,0,0,0-.375.365v.73a.37.37,0,0,0,.375.365h8.25A.37.37,0,0,0,57,417.1v-.73A.37.37,0,0,0,56.625,416Z" transform="translate(-48 -416)"/></g></svg>