<svg xmlns="http://www.w3.org/2000/svg" width="13.153" height="9.207" viewBox="0 0 13.153 9.207"><defs><style>.a{fill:#fff;}</style></defs><path class="a" d="M1.973,6.2A1.315,1.315,0,1,0,.658,4.881,1.317,1.317,0,0,0,1.973,6.2Zm9.207,0A1.315,1.315,0,1,0,9.865,4.881,1.317,1.317,0,0,0,11.18,6.2Zm.658.658H10.523a1.311,1.311,0,0,0-.927.382,3.006,3.006,0,0,1,1.543,2.248H12.5a.657.657,0,0,0,.658-.658V8.169A1.317,1.317,0,0,0,11.838,6.854Zm-5.261,0a2.3,2.3,0,1,0-2.3-2.3A2.3,2.3,0,0,0,6.577,6.854Zm1.578.658H7.984a3.178,3.178,0,0,1-2.816,0H5A2.368,2.368,0,0,0,2.631,9.879v.592a.987.987,0,0,0,.986.986H9.536a.987.987,0,0,0,.986-.986V9.879A2.368,2.368,0,0,0,8.155,7.511Zm-4.6-.275a1.311,1.311,0,0,0-.927-.382H1.315A1.317,1.317,0,0,0,0,8.169v.658a.657.657,0,0,0,.658.658H2.012A3.014,3.014,0,0,1,3.558,7.236Z" transform="translate(0 -2.25)"/></svg>