<svg xmlns="http://www.w3.org/2000/svg" width="14.631" height="14.631" viewBox="0 0 14.631 14.631"><defs><style>.a{fill:#bec4ca;stroke:#bec4ca;stroke-width:0.667px;fill-rule:evenodd;}</style></defs><g transform="translate(0.333 0.333)"><path class="a" d="M1599.872,14812a6.982,6.982,0,1,0,6.982,6.945A6.983,6.983,0,0,0,1599.872,14812Zm0,13.218a6.2,6.2,0,0,1-4.391-1.792,6,6,0,0,1-1.127-1.568,6.129,6.129,0,0,1-.709-2.912,6.257,6.257,0,0,1,6.228-6.2,6.452,6.452,0,0,1,4.219,1.643,6.493,6.493,0,0,1,2.009,4.556A6.272,6.272,0,0,1,1599.872,14825.218Z" transform="translate(-1592.89 -14812)"/><path class="a" d="M1598.536,14818.947a.72.72,0,0,1,.739.746h.754a1.49,1.49,0,1,0-2.979,0h.754A.718.718,0,0,1,1598.536,14818.947Z" transform="translate(-1593.943 -14813.571)"/><path class="a" d="M1604.926,14818.947a.72.72,0,0,1,.739.746h.754a1.49,1.49,0,1,0-2.98,0h.754A.718.718,0,0,1,1604.926,14818.947Z" transform="translate(-1595.562 -14813.571)"/><path class="a" d="M1600.987,14825.689a4.449,4.449,0,0,0,3.659-1.941l-.635-.448a3.675,3.675,0,0,1-3.428,1.644,3.721,3.721,0,0,1-2.6-1.644l-.635.448a4.489,4.489,0,0,0,3.151,1.941Z" transform="translate(-1594.019 -14814.861)"/></g></svg>