<svg xmlns="http://www.w3.org/2000/svg" width="30" height="30" viewBox="0 0 30 30"><defs><style>.a{fill:#eb2d2d;}</style></defs><path class="a" d="M17.788,0H3.433A3.434,3.434,0,0,0,0,3.438V22.817a3.434,3.434,0,0,0,3.433,3.438H9.549a4.642,4.642,0,0,1,.637-1.413L16.7,14.24a4.883,4.883,0,0,1,4.207-2.363,2.605,2.605,0,0,1,.312.013V3.438A3.434,3.434,0,0,0,17.788,0ZM4.993,5H9.986a1.25,1.25,0,0,1,0,2.5H4.993a1.25,1.25,0,0,1,0-2.5Zm6.241,12.5H4.993a1.25,1.25,0,0,1,0-2.5h6.241a1.25,1.25,0,0,1,0,2.5Zm4.993-5H4.993a1.25,1.25,0,0,1,0-2.5H16.228a1.25,1.25,0,0,1,0,2.5Z"/><path class="a" d="M27.234,23.389l-6.588-10.7a2.445,2.445,0,0,0-4.179-.02L9.893,23.346A2.347,2.347,0,0,0,9.5,24.663a2.447,2.447,0,0,0,2.449,2.44h13.2a2.447,2.447,0,0,0,2.449-2.44,2.3,2.3,0,0,0-.366-1.274ZM18.55,24.607A1.248,1.248,0,1,1,19.8,23.359,1.249,1.249,0,0,1,18.55,24.607ZM19.8,20.238a1.248,1.248,0,0,1-2.5,0v-2.5a1.248,1.248,0,0,1,2.5,0Z" transform="translate(2.4 2.896)"/></svg>