<svg xmlns="http://www.w3.org/2000/svg" width="15" height="15" viewBox="0 0 15 15"><defs><style>.a{fill:#676767;}</style></defs><path class="a" d="M16.571,11.625a4.69,4.69,0,0,0,.038-.75c0-.263-.038-.487-.038-.75l1.611-1.237a.344.344,0,0,0,.077-.487L16.724,5.813a.374.374,0,0,0-.46-.15l-1.918.75a5.582,5.582,0,0,0-1.3-.75l-.269-1.987a.411.411,0,0,0-.384-.3H9.321a.411.411,0,0,0-.384.3L8.631,5.662a6.5,6.5,0,0,0-1.3.75l-1.918-.75a.359.359,0,0,0-.46.15L3.415,8.4a.453.453,0,0,0,.077.487l1.649,1.237c0,.263-.038.487-.038.75s.038.487.038.75L3.53,12.862a.344.344,0,0,0-.077.487l1.534,2.588a.374.374,0,0,0,.46.15l1.918-.75a5.581,5.581,0,0,0,1.3.75l.307,1.987a.372.372,0,0,0,.384.3h3.068a.411.411,0,0,0,.384-.3l.307-1.987a6.491,6.491,0,0,0,1.3-.75l1.918.75a.359.359,0,0,0,.46-.15l1.534-2.588a.452.452,0,0,0-.077-.487ZM10.856,13.5a2.626,2.626,0,1,1,2.685-2.625A2.639,2.639,0,0,1,10.856,13.5Z" transform="translate(-3.375 -3.375)"/></svg>