<svg xmlns="http://www.w3.org/2000/svg" width="14.8" height="9.867" viewBox="0 0 14.8 9.867"><defs><style>.a{fill:none;}.b,.c{stroke:none;}.c{fill:#3e6562;}</style></defs><g class="a" transform="translate(0 -4.5)"><path class="b" d="M.089,9.058A8.241,8.241,0,0,1,7.4,4.5a8.242,8.242,0,0,1,7.311,4.558.831.831,0,0,1,0,.75A8.241,8.241,0,0,1,7.4,14.367,8.242,8.242,0,0,1,.089,9.808.831.831,0,0,1,.089,9.058ZM7.4,13.133a3.7,3.7,0,1,0-3.7-3.7A3.7,3.7,0,0,0,7.4,13.133Zm0-6.167a2.449,2.449,0,0,1,.65.1A1.229,1.229,0,0,0,9.769,8.783,2.461,2.461,0,1,1,7.4,6.967Z"/><path class="c" d="M 7.400037288665771 4.500001907348633 C 10.55865669250488 4.500001907348633 13.31799697875977 6.340751647949219 14.71063709259033 9.058462142944336 C 14.82983684539795 9.294261932373047 14.82983684539795 9.57268238067627 14.71063709259033 9.80848217010498 C 13.31721687316895 12.52721214294434 10.55865669250488 14.3666820526123 7.400037288665771 14.3666820526123 C 4.241416931152344 14.3666820526123 1.482087135314941 12.52593231201172 0.08943748474121094 9.808221817016602 C -0.02976226806640625 9.572422027587891 -0.02976226806640625 9.294001579284668 0.08943748474121094 9.058201789855957 C 1.482857704162598 6.339471817016602 4.241416931152344 4.500001907348633 7.400037288665771 4.500001907348633 Z M 7.39820671081543 13.13335227966309 C 7.398830413818359 13.13335227966309 7.399413585662842 13.13335227966309 7.400037288665771 13.13335227966309 C 9.443496704101562 13.13335227966309 11.10004711151123 11.47680187225342 11.10004711151123 9.433341979980469 C 11.10004711151123 7.38988208770752 9.443496704101562 5.733331680297852 7.400037288665771 5.733331680297852 C 5.356576919555664 5.733331680297852 3.700027465820312 7.38988208770752 3.700027465820312 9.433341979980469 C 3.699037551879883 11.47658824920654 5.355196952819824 13.13335227966309 7.39820671081543 13.13335227966309 Z M 7.394204616546631 6.966665267944336 C 7.396201133728027 6.966665267944336 7.398039817810059 6.966667175292969 7.400037288665771 6.966671943664551 C 7.6202073097229 6.969741821289062 7.8389573097229 7.00250244140625 8.05036735534668 7.064051628112793 C 7.690247058868408 7.553431510925293 7.741617202758789 8.232481956481934 8.171257019042969 8.662121772766113 C 8.409441947937012 8.900306701660156 8.724319458007812 9.022244453430176 9.040998458862305 9.022244453430176 C 9.295549392700195 9.022244453430176 9.551250457763672 8.943488121032715 9.769327163696289 8.783012390136719 C 10.04583740234375 9.801741600036621 9.641887664794922 10.88335227966309 8.765287399291992 11.47142219543457 C 8.349618911743164 11.75027465820312 7.871555328369141 11.88870620727539 7.394435405731201 11.88870620727539 C 6.865359783172607 11.88870620727539 6.337440490722656 11.71850204467773 5.896946907043457 11.38081169128418 C 5.059206962585449 10.73858165740967 4.724327087402344 9.633631706237793 5.064587593078613 8.634391784667969 C 5.404203414916992 7.637042999267578 6.341061592102051 6.966665267944336 7.394204616546631 6.966665267944336 Z"/></g></svg>