<svg xmlns="http://www.w3.org/2000/svg" xmlns:xlink="http://www.w3.org/1999/xlink" width="517" height="493" viewBox="0 0 517 493"><defs><style>.a{fill:#fff;}.b{fill:#fafafa;}.c{fill:#3e6562;}.d{fill:#80c7c3;}.e{fill:#52ddd2;}.f{fill:#888;}.f,.h{font-size:11px;}.f,.g,.h{font-family:SFProDisplay-Bold, SF Pro Display;font-weight:700;}.g{font-size:12px;}.i{fill:#323234;}.j{fill:none;stroke:#80c7c3;stroke-miterlimit:10;stroke-width:2px;}.k{fill:#ededed;}.l{fill:#c9c9c9;}.m{filter:url(#e);}.n{filter:url(#c);}.o{filter:url(#a);}</style><filter id="a" x="0" y="0" width="482" height="319" filterUnits="userSpaceOnUse"><feOffset dx="7" dy="7" input="SourceAlpha"/><feGaussianBlur stdDeviation="15" result="b"/><feFlood flood-opacity="0.161"/><feComposite operator="in" in2="b"/><feComposite in="SourceGraphic"/></filter><filter id="c" x="357" y="333" width="160" height="160" filterUnits="userSpaceOnUse"><feOffset dx="7" dy="7" input="SourceAlpha"/><feGaussianBlur stdDeviation="15" result="d"/><feFlood flood-opacity="0.161"/><feComposite operator="in" in2="d"/><feComposite in="SourceGraphic"/></filter><filter id="e" x="58" y="269" width="160" height="160" filterUnits="userSpaceOnUse"><feOffset dx="7" dy="7" input="SourceAlpha"/><feGaussianBlur stdDeviation="15" result="f"/><feFlood flood-opacity="0.161"/><feComposite operator="in" in2="f"/><feComposite in="SourceGraphic"/></filter></defs><g transform="translate(38 38)"><g transform="translate(-943 266.021)"><g class="o" transform="matrix(1, 0, 0, 1, 905, -304.02)"><rect class="a" width="392" height="229" transform="translate(38 38)"/></g><rect class="b" width="175" height="29" transform="translate(1136 -224.021)"/><rect class="b" width="175" height="29" transform="translate(1136 -187.021)"/><rect class="b" width="175" height="29" transform="translate(1136 -151.021)"/><rect class="b" width="175" height="30" transform="translate(1136 -115.021)"/><g transform="translate(968 -224)"><path class="c" d="M73,146A73.019,73.019,0,0,1,44.585,5.737a73.019,73.019,0,0,1,56.83,134.527A72.542,72.542,0,0,1,73,146ZM73,21.9a50.938,50.938,0,1,0,19.89,4.016A50.781,50.781,0,0,0,73,21.9Z" transform="translate(0 -0.021)"/><path class="d" d="M0,146V124.1H0a50.772,50.772,0,0,0,19.89-4.016,50.949,50.949,0,0,0,16.242-10.951A50.964,50.964,0,0,0,47.084,92.891,50.778,50.778,0,0,0,51.1,73a50.784,50.784,0,0,0-4.016-19.891A50.964,50.964,0,0,0,36.133,36.867,50.949,50.949,0,0,0,19.891,25.916,50.772,50.772,0,0,0,0,21.9H0V0H0A72.535,72.535,0,0,1,28.415,5.737a72.747,72.747,0,0,1,23.2,15.645,72.748,72.748,0,0,1,15.644,23.2A72.543,72.543,0,0,1,73,73a72.537,72.537,0,0,1-5.737,28.414,72.748,72.748,0,0,1-15.644,23.2,72.748,72.748,0,0,1-23.2,15.645A72.535,72.535,0,0,1,0,146Z" transform="translate(73 -0.021)"/><path class="e" d="M18.432,27.156A72.575,72.575,0,0,1,0,15.883L15.165,0A50.824,50.824,0,0,0,26.954,6.983,50.769,50.769,0,0,0,46.838,11V32.891A72.524,72.524,0,0,1,18.432,27.156Z" transform="translate(26.14 113.066)"/></g><text class="f" transform="translate(1218 -207.021)"><tspan x="-68.653" y="0">Drivers Count</tspan></text><text class="f" transform="translate(1179 -170.021)"><tspan x="-30.18" y="0">Today</tspan></text><text class="f" transform="translate(1205 -134.021)"><tspan x="-55.994" y="0">This Month</tspan></text><text class="f" transform="translate(1194 -97.021)"><tspan x="-45.466" y="0">This year</tspan></text><text class="g" transform="translate(1297 -206.021)"><tspan x="-15.076" y="0">20</tspan></text><text class="g" transform="translate(1297 -169.021)"><tspan x="-15.064" y="0">28</tspan></text><text class="h" transform="translate(1297 -134.021)"><tspan x="-11.575" y="0">17</tspan></text><text class="g" transform="translate(1297 -96.021)"><tspan x="-15.076" y="0">20</tspan></text><circle class="b" cx="41" cy="41" r="41" transform="translate(1000 -192.021)"/></g><g transform="translate(-787 -93)"><g class="n" transform="matrix(1, 0, 0, 1, 749, 55)"><rect class="a" width="70" height="70" transform="translate(395 371)"/></g><g transform="translate(1160.625 442.625)"><path class="i" d="M26.241,13.563l-1.3-1.273a.286.286,0,0,0-.207-.084h0a.274.274,0,0,0-.207.084l-9,8.641L12.25,17.81a.3.3,0,0,0-.413,0l-1.314,1.252a.271.271,0,0,0,0,.4L14.655,23.4a1.334,1.334,0,0,0,.863.4,1.4,1.4,0,0,0,.856-.387h.007l9.866-9.45A.29.29,0,0,0,26.241,13.563Z" transform="translate(0 0.375)"/><path class="d" d="M18.375,5.394a12.976,12.976,0,1,1-9.18,3.8,12.895,12.895,0,0,1,9.18-3.8m0-2.019a15,15,0,1,0,15,15,15,15,0,0,0-15-15Z"/></g></g><g transform="translate(-782 -93)"><g class="m" transform="matrix(1, 0, 0, 1, 744, 55)"><rect class="a" width="70" height="70" transform="translate(96 307)"/></g><g transform="translate(641 163)"><path class="j" d="M223.239,244.45A15,15,0,1,0,219,234,14.955,14.955,0,0,0,223.239,244.45ZM234,228.737A5.263,5.263,0,1,1,228.737,234,5.263,5.263,0,0,1,234,228.737Z"/><line class="j" y2="10" transform="translate(234 239)"/><line class="j" x2="8.432" y2="4.868" transform="translate(221.01 226.5)"/><line class="j" x1="8.432" y2="4.868" transform="translate(238.558 226.5)"/><circle class="i" cx="2" cy="2" r="2" transform="translate(232 232)"/></g></g><g transform="translate(-787 373)"><rect class="k" width="308" height="172" transform="translate(955 -241)"/><rect class="a" width="35" height="75" transform="translate(985 -174)"/><rect class="a" width="35" height="75" transform="translate(1070 -174)"/><rect class="a" width="35" height="75" transform="translate(1155 -174)"/><rect class="a" width="35" height="75" transform="translate(1028 -174)"/><rect class="a" width="35" height="75" transform="translate(1113 -174)"/><rect class="a" width="35" height="75" transform="translate(1198 -174)"/><rect class="c" width="25" height="25" transform="translate(985 -211)"/><rect class="a" width="213" height="8" transform="translate(1020 -211)"/><rect class="a" width="43" height="8" transform="translate(1020 -198)"/><rect class="a" width="20" height="8" transform="translate(1068 -198)"/><rect class="a" width="20" height="8" transform="translate(1093 -198)"/><rect class="a" width="72" height="8" transform="translate(1118 -198)"/><rect class="a" width="38" height="8" transform="translate(1195 -198)"/><rect class="l" width="35" height="17" transform="translate(985 -116)"/><rect class="l" width="35" height="33" transform="translate(1070 -132)"/><rect class="c" width="35" height="60" transform="translate(1155 -159)"/><rect class="l" width="35" height="50" transform="translate(1028 -149)"/><rect class="c" width="35" height="44" transform="translate(1113 -143)"/><rect class="c" width="35" height="38" transform="translate(1198 -137)"/></g></g></svg>