<svg id="Layer_1" data-name="Layer 1" xmlns="http://www.w3.org/2000/svg" viewBox="0 0 200 22"><defs><style>.cls-1{fill:#333;}</style></defs><path class="cls-1" d="M17.4,1.8A11.88,11.88,0,0,0,11.68.43,12,12,0,0,0,5.94,1.8a10.33,10.33,0,0,0-4,3.78A10.39,10.39,0,0,0,.5,11a10.19,10.19,0,0,0,5.44,9.2,12,12,0,0,0,5.74,1.37A11.88,11.88,0,0,0,17.4,20.2,10.25,10.25,0,0,0,22.86,11,10.22,10.22,0,0,0,17.4,1.8Zm-.16,12.59A6,6,0,0,1,15,16.71a6.52,6.52,0,0,1-3.27.83,6.52,6.52,0,0,1-3.27-.83,6,6,0,0,1-2.29-2.32A6.79,6.79,0,0,1,5.29,11a6.79,6.79,0,0,1,.83-3.39A6,6,0,0,1,8.41,5.29a6.52,6.52,0,0,1,3.27-.83A6.52,6.52,0,0,1,15,5.29a6,6,0,0,1,2.29,2.32A6.79,6.79,0,0,1,18.07,11,6.79,6.79,0,0,1,17.24,14.39Z"/><path class="cls-1" d="M48.26,12.05a6.17,6.17,0,0,1-1.17,4.16,4.26,4.26,0,0,1-3.39,1.33q-4.55,0-4.55-5.49V.78H34.42V12.23c0,3,.81,5.3,2.44,6.91a9.22,9.22,0,0,0,6.81,2.43,9.23,9.23,0,0,0,6.82-2.43c1.63-1.61,2.44-3.92,2.44-6.91V.78H48.26Z"/><path class="cls-1" d="M82.4,12.12A6.91,6.91,0,0,0,83.49,8.2a7.07,7.07,0,0,0-1.08-3.94,6.94,6.94,0,0,0-3.08-2.57A11.21,11.21,0,0,0,74.62.78H65.77V21.22H70.5v-5.7h4.35l3.94,5.7h5.08l-4.58-6.57A6.94,6.94,0,0,0,82.4,12.12Zm-4.8-1.3a4.87,4.87,0,0,1-3.24.94H70.5V4.64h3.86a4.93,4.93,0,0,1,3.24.92A3.22,3.22,0,0,1,78.7,8.2,3.22,3.22,0,0,1,77.6,10.82Z"/><polygon class="cls-1" points="100.13 0.78 95.4 0.78 95.4 21.22 110.38 21.22 110.38 17.36 100.13 17.36 100.13 0.78"/><polygon class="cls-1" points="165.99 13.19 155.83 0.78 151.92 0.78 151.92 21.22 156.59 21.22 156.59 8.81 166.78 21.22 170.66 21.22 170.66 0.78 165.99 0.78 165.99 13.19"/><polygon class="cls-1" points="188.38 17.42 188.38 12.69 197.87 12.69 197.87 9.02 188.38 9.02 188.38 4.58 199.12 4.58 199.12 0.78 183.68 0.78 183.68 21.22 199.5 21.22 199.5 17.42 188.38 17.42"/><polygon class="cls-1" points="129.1 16.98 127.21 21.22 133.1 21.22 131.21 16.98 129.1 16.98"/><polygon class="cls-1" points="132.47 0.78 127.81 0.78 127.81 0.78 118.7 21.22 123.54 21.22 125.49 16.84 127.01 13.25 129.23 7.89 130.98 7.89 133.2 13.25 134.69 16.84 136.65 21.22 141.61 21.22 132.47 0.78 132.47 0.78"/></svg>