<svg xmlns="http://www.w3.org/2000/svg" width="26" height="26" viewBox="0 0 26 26"><defs><style>.a{fill:#daefff;}.b{fill:#62c3f7;}</style></defs><rect class="a" width="26" height="26" rx="13"/><path class="b" d="M9.657,9.168H10.7c2.266,0,3.551-1.02,3.96-3.118.013-.069.025-.136.035-.2a3.319,3.319,0,0,0,.039-.392c0-.084.006-.134.006-.18a1.662,1.662,0,0,0-.136-.653,2.246,2.246,0,0,0-.385-.577,3.4,3.4,0,0,0-2.586-.96H8.079a.509.509,0,0,0-.5.429L6.935,7.645l-.8,5.145a.305.305,0,0,0,.3.353H8.182l.534-3.17a.95.95,0,0,1,.941-.8Zm5.722-2.884c-.5,2.371-2.11,3.628-4.68,3.628H9.657a.208.208,0,0,0-.206.177L8.756,14.4h1.827a.445.445,0,0,0,.439-.375l.018-.094.349-2.209.023-.122a.445.445,0,0,1,.439-.375h.277a3.26,3.26,0,0,0,3.6-2.833,2.431,2.431,0,0,0-.353-2.107Z" transform="translate(1.866 4.915)"/></svg>