<svg xmlns="http://www.w3.org/2000/svg" width="30" height="30" viewBox="0 0 30 30"><defs><style>.a{fill:#fff9e3;}.b{fill:#ffc700;}</style></defs><rect class="a" width="30" height="30" rx="6"/><g transform="translate(8 8)"><path class="b" d="M4.281.864,3.7.263A.126.126,0,0,0,3.6.223h0a.121.121,0,0,0-.093.04L2.29,1.513.816.04a.128.128,0,0,0-.186,0L.04.631A.132.132,0,0,0,.04.82L1.9,2.678a.588.588,0,0,0,.388.189.616.616,0,0,0,.385-.183h0L4.284,1.053A.142.142,0,0,0,4.281.864Z" transform="translate(6.472 4.286) rotate(45)"/><path class="b" d="M10.278,4.3A5.972,5.972,0,1,1,6.053,6.053,5.935,5.935,0,0,1,10.278,4.3m0-.929a6.9,6.9,0,1,0,6.9,6.9,6.9,6.9,0,0,0-6.9-6.9Z" transform="translate(-3.375 -3.375)"/></g></svg>