<svg xmlns="http://www.w3.org/2000/svg" width="58" height="57" viewBox="0 0 58 57"><defs><style>.a{fill:#22c800;}.b{fill:#fff;}</style></defs><rect class="a" width="58" height="57" rx="4"/><path class="b" d="M18,3.375A14.625,14.625,0,1,0,32.625,18,14.623,14.623,0,0,0,18,3.375Zm7.488,10.582-9.4,9.443H16.08a1.27,1.27,0,0,1-.816.387,1.231,1.231,0,0,1-.823-.4L10.5,19.448a.28.28,0,0,1,0-.4L11.756,17.8a.272.272,0,0,1,.394,0l3.122,3.122,8.578-8.641a.278.278,0,0,1,.2-.084h0a.255.255,0,0,1,.2.084l1.23,1.273A.277.277,0,0,1,25.488,13.957Z" transform="translate(10.625 10.625)"/></svg>