<svg xmlns="http://www.w3.org/2000/svg" width="20.79" height="20.116" viewBox="0 0 20.79 20.116"><defs><style>.a{fill:#9ccac7;}</style></defs><path class="a" d="M4850.475,566.16c.411-.762.826-1.508,1.216-2.266a10,10,0,0,0,.389-.954.68.68,0,0,0-.119-.7,6.684,6.684,0,0,1-1.225-2.735,7.017,7.017,0,0,1,.777-5,6.873,6.873,0,0,1,3.463-3.047,7.078,7.078,0,0,1,5-.185,6.737,6.737,0,0,1,4.552,4.72,7.147,7.147,0,0,1-5.312,9.013,6.768,6.768,0,0,1-3.828-.229.928.928,0,0,0-1.042.208A5.014,5.014,0,0,1,4850.475,566.16Zm5.3-8.066a.71.71,0,1,0-.731.7A.7.7,0,0,0,4855.778,558.094Zm5-.716a.708.708,0,0,0-.024,1.416.713.713,0,0,0,.733-.7A.7.7,0,0,0,4860.78,557.378Zm-2.151.707a.709.709,0,1,0-.713.71A.7.7,0,0,0,4858.628,558.085Z" transform="translate(-4850.475 -550.905)"/><path class="a" d="M4969.479,654.148c-.274-.026-.55-.034-.82-.081a3.489,3.489,0,0,1-1.754-.884.752.752,0,0,0-.816-.157,4.989,4.989,0,0,1-3.365-.016,5.1,5.1,0,0,1-3.442-4.053c-.029-.153.049-.2.155-.248a9.159,9.159,0,0,0,2.072-1.33,8.2,8.2,0,0,0,2.568-4.158c.094-.355.087-.357.462-.342a5.121,5.121,0,0,1,4.933,4.076,4.89,4.89,0,0,1-.8,4.019.985.985,0,0,0-.149,1.105c.293.592.574,1.191.862,1.786.034.071.079.136.119.2Z" transform="translate(-4948.814 -634.031)"/></svg>