<svg xmlns="http://www.w3.org/2000/svg" width="12.67" height="9.503" viewBox="0 0 12.67 9.503"><defs><style>.a{fill:#323234;}</style></defs><path class="a" d="M12.373,7.272H10.891L10.48,6.242A2.758,2.758,0,0,0,7.907,4.5H4.764A2.758,2.758,0,0,0,2.19,6.242L1.779,7.272H.3a.3.3,0,0,0-.288.369l.148.594a.3.3,0,0,0,.288.225h.5A1.573,1.573,0,0,0,.4,9.647v1.188a1.571,1.571,0,0,0,.4,1.038v1.338A.792.792,0,0,0,1.584,14h.792a.792.792,0,0,0,.792-.792v-.792H9.5v.792a.792.792,0,0,0,.792.792h.792a.792.792,0,0,0,.792-.792V11.873a1.57,1.57,0,0,0,.4-1.038V9.647a1.573,1.573,0,0,0-.546-1.188h.5a.3.3,0,0,0,.288-.225l.148-.594a.3.3,0,0,0-.288-.369ZM3.661,6.83a1.188,1.188,0,0,1,1.1-.747H7.907a1.188,1.188,0,0,1,1.1.747L9.5,8.063H3.168L3.661,6.83Zm-1.285,4a.789.789,0,1,1,0-1.579,1.523,1.523,0,0,1,1.188,1.184C3.564,10.909,2.851,10.83,2.376,10.83Zm7.919,0c-.475,0-1.188.079-1.188-.395a1.523,1.523,0,0,1,1.188-1.184.789.789,0,1,1,0,1.579Z" transform="translate(0 -4.5)"/></svg>