<svg xmlns="http://www.w3.org/2000/svg" width="17" height="17" viewBox="0 0 17 17"><defs><style>.a{fill:#909090;}</style></defs><g transform="translate(0 0)"><path class="a" d="M815.743,517.872h7.5v-.152c0-.362,0-.725,0-1.087a.538.538,0,0,1,.568-.582q1.809-.008,3.619,0a.538.538,0,0,1,.563.586q0,2.8,0,5.607a.537.537,0,0,1-.577.582H811.563a.535.535,0,0,1-.57-.574q0-2.8,0-5.593a.553.553,0,0,1,.613-.609q1.5,0,3,0c.176,0,.353,0,.529,0a.551.551,0,0,1,.6.6c0,.358,0,.715,0,1.073Zm3.745,1.688h0c-.462,0-.925,0-1.387,0a.528.528,0,1,0-.008,1.055c.934,0,1.868,0,2.8,0a.522.522,0,0,0,.4-.164.507.507,0,0,0,.1-.57.491.491,0,0,0-.48-.321C820.441,519.558,819.965,519.56,819.488,519.56Z" transform="translate(-810.993 -505.825)"/><path class="a" d="M889.721,343.483v.188q0,1.817,0,3.633c0,.468-.193.662-.659.662h-2.3a.556.556,0,0,1-.634-.63q0-1.831,0-3.662v-.191h-.162c-.606,0-1.211,0-1.817,0a.521.521,0,0,1-.565-.557.79.79,0,0,1,.16-.371q1.285-1.691,2.582-3.372c.368-.48.733-.964,1.108-1.439a.892.892,0,0,1,.31-.261.507.507,0,0,1,.637.212c.4.516.8,1.036,1.193,1.554l2.507,3.267c.029.038.059.075.085.115a.514.514,0,0,1,.045.567.531.531,0,0,1-.493.287h-2Z" transform="translate(-879.424 -337.437)"/></g></svg>