<svg xmlns="http://www.w3.org/2000/svg" width="40" height="40" viewBox="0 0 40 40"><defs><style>.a{fill:#e3f2fd;}.b{fill:none;stroke:#76cefc;stroke-linecap:round;stroke-linejoin:round;stroke-width:2px;}</style></defs><rect class="a" width="40" height="40" rx="20"/><g transform="translate(12 13)"><path class="b" d="M13.864,27.136V25.591A3.091,3.091,0,0,0,10.773,22.5H4.591A3.091,3.091,0,0,0,1.5,25.591v1.545" transform="translate(-1.5 -13.227)"/><path class="b" d="M13.682,7.591A3.091,3.091,0,1,1,10.591,4.5a3.091,3.091,0,0,1,3.091,3.091Z" transform="translate(-4.409 -4.5)"/><path class="b" d="M32.318,27.231V25.685A3.091,3.091,0,0,0,30,22.7" transform="translate(-15.318 -13.322)"/><path class="b" d="M24,4.695a3.091,3.091,0,0,1,0,5.989" transform="translate(-12.409 -4.595)"/></g></svg>