<svg xmlns="http://www.w3.org/2000/svg" width="26" height="26" viewBox="0 0 26 26"><defs><style>.a{fill:#e4daff;}.b{fill:#7144ec;}</style></defs><rect class="a" width="26" height="26" rx="13"/><g transform="translate(5.021 4.251)"><path class="b" d="M11.255,11.25H4.7a1.329,1.329,0,0,0-1.328,1.328V16.3A1.329,1.329,0,0,0,4.7,17.625h6.552A1.329,1.329,0,0,0,12.583,16.3V12.578A1.329,1.329,0,0,0,11.255,11.25Z" transform="translate(0 -4.626)"/><path class="b" d="M10.673,4.522l-5.2,1.016c-.4.089-.974.489-.974.976a1.4,1.4,0,0,1,1.085-.421h6.353V5.639a1.271,1.271,0,0,0-.308-.832h0A1.047,1.047,0,0,0,10.673,4.522Z" transform="translate(-0.771)"/></g></svg>